private const string NON_LATIN_CUE_SHEET = """PERFORMER "野見祐二"
TITLE "好きっていいなよ。 Music&Drama Collection CD vol.1"
FILE "music & drama collection CD Vol.1.flac" WAVE
  TRACK 01 AUDIO
    TITLE "Friendship ～ for 好きっていいなよ。"
    PERFORMER "岡崎律子"
    ISRC JPKI01216342
    INDEX 01 00:00:00
  TRACK 02 AUDIO
    TITLE "Say “I love you”."
    PERFORMER "野見祐二"
    ISRC JPKI01216297
    INDEX 00 05:03:03
    INDEX 01 05:05:63
  TRACK 03 AUDIO
    TITLE "オーディオドラマめいとマシュマロ①「めいとマシュマロ」"
    PERFORMER "出演／橘めい：茅野愛衣、マシュマロ：櫻井孝宏"
    ISRC JPKI01216350
    INDEX 00 07:49:07
    INDEX 01 07:50:67
  TRACK 04 AUDIO
    TITLE "友達なんて不必要"
    PERFORMER "野見祐二"
    ISRC JPKI01216298
    INDEX 00 09:01:46
    INDEX 01 09:03:31
  TRACK 05 AUDIO
    TITLE "おもしろい人"
    PERFORMER "野見祐二"
    ISRC JPKI01216299
    INDEX 00 10:37:16
    INDEX 01 10:39:01
  TRACK 06 AUDIO
    TITLE "うちら占め"
    PERFORMER "野見祐二"
    ISRC JPKI01216300
    INDEX 00 11:58:10
    INDEX 01 11:59:32
  TRACK 07 AUDIO
    TITLE "オーディオドラマめいとマシュマロ②「バンソーコとマシュマロ」"
    PERFORMER "出演／橘めい：茅野愛衣、マシュマロ：櫻井孝宏"
    ISRC JPKI01216387
    INDEX 00 13:17:51
    INDEX 01 13:19:36
  TRACK 08 AUDIO
    TITLE "弱い心"
    PERFORMER "野見祐二"
    ISRC JPKI01216301
    INDEX 00 15:04:10
    INDEX 01 15:06:33
  TRACK 09 AUDIO
    TITLE "たくさんの目"
    PERFORMER "野見祐二"
    ISRC JPKI01216302
    INDEX 00 17:13:24
    INDEX 01 17:14:09
  TRACK 10 AUDIO
    TITLE "嫌な女"
    PERFORMER "野見祐二"
    ISRC JPKI01216303
    INDEX 00 19:04:25
    INDEX 01 19:06:10
  TRACK 11 AUDIO
    TITLE "キスをした。"
    PERFORMER "野見祐二"
    ISRC JPKI01216304
    INDEX 00 20:23:72
    INDEX 01 20:25:57
  TRACK 12 AUDIO
    TITLE "キモチワルイ"
    PERFORMER "野見祐二"
    ISRC JPKI01216305
    INDEX 00 23:33:62
    INDEX 01 23:35:47
  TRACK 13 AUDIO
    TITLE "オーディオドラマめいとマシュマロ③「ケイタイとマシュマロ」"
    PERFORMER "出演／橘めい：茅野愛衣、マシュマロ：櫻井孝宏"
    ISRC JPKI01216388
    INDEX 00 25:14:32
    INDEX 01 25:16:17
  TRACK 14 AUDIO
    TITLE "人からもらう温度"
    PERFORMER "野見祐二"
    ISRC JPKI01216306
    INDEX 00 27:10:73
    INDEX 01 27:13:21
  TRACK 15 AUDIO
    TITLE "アイキャッチ①"
    PERFORMER "野見祐二"
    ISRC JPKI01216307
    INDEX 00 29:12:53
    INDEX 01 29:13:38
  TRACK 16 AUDIO
    TITLE "なんか、おもしろい"
    PERFORMER "野見祐二"
    ISRC JPKI01216308
    INDEX 00 29:19:74
    INDEX 01 29:20:59
  TRACK 17 AUDIO
    TITLE "恋愛初心者"
    PERFORMER "野見祐二"
    ISRC JPKI01216309
    INDEX 00 31:07:69
    INDEX 01 31:09:17
  TRACK 18 AUDIO
    TITLE "あまのじゃく"
    PERFORMER "野見祐二"
    ISRC JPKI01216310
    INDEX 00 32:22:53
    INDEX 01 32:24:38
  TRACK 19 AUDIO
    TITLE "オーディオドラマめいとマシュマロ④「おしゃれとマシュマロ」"
    PERFORMER "出演／橘めい：茅野愛衣、マシュマロ：櫻井孝宏"
    ISRC JPKI01216389
    INDEX 00 33:32:02
    INDEX 01 33:33:62
  TRACK 20 AUDIO
    TITLE "女の子独特の感情"
    PERFORMER "野見祐二"
    ISRC JPKI01216311
    INDEX 00 35:09:40
    INDEX 01 35:11:62
  TRACK 21 AUDIO
    TITLE "彼の理想"
    PERFORMER "野見祐二"
    ISRC JPKI01216312
    INDEX 00 36:17:00
    INDEX 01 36:18:60
  TRACK 22 AUDIO
    TITLE "本気チュー"
    PERFORMER "野見祐二"
    ISRC JPKI01216313
    INDEX 00 37:44:62
    INDEX 01 37:47:10
  TRACK 23 AUDIO
    TITLE "とまらない..."
    PERFORMER "野見祐二"
    ISRC JPKI01216314
    INDEX 00 38:42:55
    INDEX 01 38:44:40
  TRACK 24 AUDIO
    TITLE "心配だよ。"
    PERFORMER "野見祐二"
    ISRC JPKI01216315
    INDEX 00 40:21:02
    INDEX 01 40:23:25
  TRACK 25 AUDIO
    TITLE "オーディオドラマめいとマシュマロ⑤「ごはんとマシュマロ」"
    PERFORMER "出演／橘めい：茅野愛衣、マシュマロ：櫻井孝宏"
    ISRC JPKI01216390
    INDEX 00 41:34:71
    INDEX 01 41:36:56
  TRACK 26 AUDIO
    TITLE "自分の置かれている状況"
    PERFORMER "野見祐二"
    ISRC JPKI01216316
    INDEX 00 43:11:25
    INDEX 01 43:13:10
  TRACK 27 AUDIO
    TITLE "どうしようもないくらい"
    PERFORMER "野見祐二"
    ISRC JPKI01216317
    INDEX 00 45:48:14
    INDEX 01 45:50:36""";


void non_latin_test() {
    Gue.Sheet sheet;
    try {
        sheet = new Gue.Sheet.parse_data(NON_LATIN_CUE_SHEET.data);
    } catch (Error e) {
        error(e.message);
    }

    assert ((!) sheet.title ==
        "好きっていいなよ。 Music&Drama Collection CD vol.1");
    assert ((!) sheet.performer == "野見祐二");

    assert (!sheet.generated_by_eac);
    assert (sheet.files.length == 1);
    assert (sheet.files[0].file_type == Gue.FileType.WAVE);

    assert (sheet.files[0].tracks.length == sheet.tracks.length);
    for (var i = 0; i < sheet.tracks.length; i++)
        assert (sheet.files[0].tracks[i] == sheet.tracks[i]);

    assert ((!) sheet.tracks[0].title ==
        "Friendship ～ for 好きっていいなよ。");
    assert ((!) sheet.tracks[0].performer == "岡崎律子");
    assert ((!) sheet.tracks[0].isrc == "JPKI01216342");
    assert (sheet.tracks[0].number == 1);
    assert (sheet.tracks[0].start_time == 0);
    assert (sheet.tracks[0].length == 303.04f);

    assert ((!) sheet.tracks[1].title == "Say “I love you”.");
    assert ((!) sheet.tracks[1].performer == "野見祐二");
    assert ((!) sheet.tracks[1].isrc == "JPKI01216297");
    assert (sheet.tracks[1].number == 2);
    assert (sheet.tracks[1].start_time == 305.84f);
    assert (sheet.tracks[1].length == 163.253326f);

    assert ((!) sheet.tracks[2].title ==
        "オーディオドラマめいとマシュマロ①「めいとマシュマロ」");
    assert ((!) sheet.tracks[2].performer ==
        "出演／橘めい：茅野愛衣、マシュマロ：櫻井孝宏");
    assert ((!) sheet.tracks[2].isrc == "JPKI01216350");
    assert (sheet.tracks[2].number == 3);
    assert (470.89 < sheet.tracks[2].start_time < 470.9);
    assert (sheet.tracks[2].length == 70.72f);

    assert ((!) sheet.tracks[26].title == "どうしようもないくらい");
    assert ((!) sheet.tracks[26].performer == "野見祐二");
    assert ((!) sheet.tracks[26].isrc == "JPKI01216317");
    assert (sheet.tracks[26].number == 27);
    assert (sheet.tracks[26].start_time == 2750.48f);
    assert (sheet.tracks[26].length == null);
}
